# xmcd
#
# Track frame offsets:
#	150
#	24335
#	51919
#	92413
#	119570
#	151563
#	178043
#	200084
#	232079
#	261099
#	278391
#	309610
#
# Disc length: 4401 seconds
#
# Revision: 1
# Processed by: cddbd v1.5.2PL0 Copyright (c) Steve Scherf et al.
# Submitted via: audiograbber 1.83.01
#
DISCID=9a112f0c
DTITLE=Stieg Larsson - Dietmar Bär - Verdammnis Teil 2 der Triologie CD 06
DYEAR=2009
DGENRE=Speech
TTITLE0=59 Verdammnis
TTITLE1=60 Verdammnis
TTITLE2=61 Verdammnis
TTITLE3=62 Verdammnis
TTITLE4=63 Verdammnis
TTITLE5=64 Verdammnis
TTITLE6=65 Verdammnis
TTITLE7=66 Verdammnis
TTITLE8=67 Verdammnis
TTITLE9=68 Verdammnis
TTITLE10=69 Verdammnis
TTITLE11=70 Verdammnis
EXTD=gelesen von Dietmar Bär
EXTT0=
EXTT1=
EXTT2=
EXTT3=
EXTT4=
EXTT5=
EXTT6=
EXTT7=
EXTT8=
EXTT9=
EXTT10=
EXTT11=
PLAYORDER=
